# xmcd
#
# Track frame offsets: 
#        150
#        9732
#        40016
#        52778
#        66317
#        77345
#        90433
#        102066
#        113963
#        126137
#        148818
#        161351
#        173249
#        189576
#        204607
#
# Disc length: 2895 seconds
#
# Revision: 0
# Processed by: cddbd v1.5.1PL0 Copyright (c) Steve Scherf et al.
# Submitted via: ExactAudioCopy v0.95a5
#
DISCID=be0b4d0f
DTITLE=The Staple Singers - Good News: The Collection
DYEAR=2001
DGENRE=Gospel
TTITLE0=This May Be the Last Time
TTITLE1=I'm Coming Home
TTITLE2=If I could Hear My Mother Pray
TTITLE3=Uncloudy Day
TTITLE4=I Know I got Religion
TTITLE5=I Had a Dream
TTITLE6=Low is the Way
TTITLE7=Come Up in Glory
TTITLE8=Let Me Ride
TTITLE9=Too Close
TTITLE10=Pray On
TTITLE11=Good News 
TTITLE12=Stand By Me
TTITLE13=Calling Me 
TTITLE14=Will the Circle Be Unbroken
EXTD=
EXTT0=
EXTT1=
EXTT2=
EXTT3=
EXTT4=
EXTT5=
EXTT6=
EXTT7=
EXTT8=
EXTT9=
EXTT10=
EXTT11=
EXTT12=
EXTT13=
EXTT14=
PLAYORDER=
